HIERARCHY
ROOT Hips
{
  OFFSET -33.9132 29.2015 117.021
  CHANNELS 6 Xposition Yposition Zposition Zrotation Xrotation Yrotation
  JOINT LeftUpLeg
  {
    OFFSET 8.64259 1.95398 -2.38835
    CHANNELS 3 Zrotation Xrotation Yrotation
    JOINT LeftLeg
    {
      OFFSET 43.7702 0 0
      CHANNELS 3 Zrotation Xrotation Yrotation
      JOINT LeftFoot
      {
        OFFSET 40.6238 0 0
        CHANNELS 3 Zrotation Xrotation Yrotation
        JOINT LeftToeBase
        {
          OFFSET 12.7242 0 0
          CHANNELS 3 Zrotation Xrotation Yrotation
          End Site
          {
            OFFSET 0 0 0
          }
        }
      }
    }
  }
  JOINT RightUpLeg
  {
    OFFSET -8.2249 1.95398 -2.59336
    CHANNELS 3 Zrotation Xrotation Yrotation
    JOINT RightLeg
    {
      OFFSET 43.5653 0 0
      CHANNELS 3 Zrotation Xrotation Yrotation
      JOINT RightFoot
      {
        OFFSET 40.6238 0 0
        CHANNELS 3 Zrotation Xrotation Yrotation
        JOINT RightToeBase
        {
          OFFSET 12.7242 0 0
          CHANNELS 3 Zrotation Xrotation Yrotation
          End Site
          {
            OFFSET 0 0 0
          }
        }
      }
    }
  }
  JOINT Spine
  {
    OFFSET 0.165834 0.87714 6.61349
    CHANNELS 3 Zrotation Xrotation Yrotation
    JOINT Spine1
    {
      OFFSET 7.38963 1.71661e-005 0
      CHANNELS 3 Zrotation Xrotation Yrotation
      JOINT Spine2
      {
        OFFSET 11.9445 1.14441e-005 0
        CHANNELS 3 Zrotation Xrotation Yrotation
        JOINT Spine3
        {
          OFFSET 14.7254 4.19617e-005 0
          CHANNELS 3 Zrotation Xrotation Yrotation
          JOINT Spine4
          {
            OFFSET 10.9679 0 0
            CHANNELS 3 Zrotation Xrotation Yrotation
            JOINT RightShoulder
            {
              OFFSET 2.46616 -1.6653 3.69651
              CHANNELS 3 Zrotation Xrotation Yrotation
              JOINT RightArm
              {
                OFFSET 13.0012 0 0
                CHANNELS 3 Zrotation Xrotation Yrotation
                JOINT RightForeArm
                {
                  OFFSET 28.7848 1.62311e-005 0
                  CHANNELS 3 Zrotation Xrotation Yrotation
                  JOINT RightHand
                  {
                    OFFSET 26.5688 1.62095e-005 0
                    CHANNELS 3 Zrotation Xrotation Yrotation
                    End Site
                    {
                      OFFSET 0 0 0
                    }
                  }
                }
              }
            }
            JOINT LeftShoulder
            {
              OFFSET 2.38034 -1.29275 -3.7523
              CHANNELS 3 Zrotation Xrotation Yrotation
              JOINT LeftArm
              {
                OFFSET 16.3182 6.07031e-005 0
                CHANNELS 3 Zrotation Xrotation Yrotation
                JOINT LeftForeArm
                {
                  OFFSET 27.0901 0 0
                  CHANNELS 3 Zrotation Xrotation Yrotation
                  JOINT LeftHand
                  {
                    OFFSET 24.5451 1.51738e-005 0
                    CHANNELS 3 Zrotation Xrotation Yrotation
                    End Site
                    {
                      OFFSET 0 0 0
                    }
                  }
                }
              }
            }
            JOINT Neck
            {
              OFFSET 5.0226 -0.0266342 0
              CHANNELS 3 Zrotation Xrotation Yrotation
              JOINT Head
              {
                OFFSET 6.69364 2.86102e-005 0
                CHANNELS 3 Zrotation Xrotation Yrotation
                End Site
                {
                  OFFSET 0 0 0
                }
              }
            }
          }
        }
      }
    }
  }
}
MOTION
Frames:	12
Frame Time:	0.0416667
-94.7269 84.9499 -91.2432 20.2045 -54.0091 24.4377 -150.713 47.3724 70.804 -59.7527 -3.68095 -12.5082 108.903 23.8463 -16.0794 27.5423 -0.12155 -1.03002 -174.339 42.831 66.5368 -60.0235 -2.1865 -8.13876 65.6775 -3.5218 -4.64814 15.2477 4.75122 4.23224 -0.0117598 11.6078 -91.9873 3.6292 -0.818692 -3.88725 -8.04719 -0.988853 -3.84754 -30.5358 0.38646 -3.95357 -10.5231 0.386461 -3.95358 89.3721 -20.2839 -112.547 17.884 17.503 -2.5727 -4.26916 -23.3389 -4.98935 -22.602 4.32423 -27.2648 -91.7373 -34.1197 71.5098 -0.350856 8.03846 -58.6768 2.65516 33.9928 -29.2291 27.1441 -13.8387 -49.6928 21.942 0.296336 -7.00008 3.59663 3.19823 10.4574 
-90.638 83.5565 -86.3649 32.458 -55.386 35.8452 -156.977 37.9853 73.6002 -58.2413 0.955771 -10.5603 111.929 28.084 -13.3561 28.9604 0.269418 -0.452478 -168.612 41.3608 67.3816 -79.9561 -12.9743 -9.84722 66.8941 -5.11162 -7.1687 11.9116 4.17875 9.17499 -0.407301 11.2154 -92.0384 4.39638 -1.64258 -3.98124 -7.2794 -1.81608 -3.90526 -29.7665 -0.371363 -4.29027 -9.75385 -0.371359 -4.29027 89.8834 -23.9206 -109.59 23.6912 15.8049 7.01413 -4.29333 -23.8889 -4.99362 -25.9729 5.69696 -30.1188 -91.5622 -34.9587 72.1335 4.62417 11.8879 -51.3317 8.81282 32.0474 -36.4808 29.4551 -16.3776 -53.4779 17.6003 1.45096 -7.54882 4.43892 4.35375 11.9344 
-86.7375 82.1918 -81.5691 45.1414 -55.9741 47.0784 -161.926 27.6862 75.3786 -56.8893 1.46364 -8.49997 114.852 30.5052 -13.4372 31.421 0.771495 1.07228 -167.136 43.9084 70.2686 -94.6772 -9.18566 -7.58116 71.1409 -8.52747 -7.43338 14.463 2.3316 11.3308 -0.738231 10.8968 -91.8235 5.03152 -2.22638 -3.54078 -6.64206 -2.37996 -3.4395 -29.1432 -1.06031 -4.04538 -9.13055 -1.06031 -4.0454 91.5161 -25.6544 -105.319 33.5497 14.5396 18.0359 -4.51462 -28.4429 -5.06765 -36.4116 8.14884 -30.05 -89.9948 -31.7816 73.9206 11.5099 11.4127 -50.1207 16.411 31.9602 -43.6014 35.4538 -20.2441 -54.6374 14.5498 1.78923 -11.0176 4.00494 5.53874 14.7711 
-82.6008 81.3554 -76.7034 52.4212 -54.0541 55.0404 -165.84 20.0139 77.4568 -53.8694 1.6068 -6.71924 115.922 31.9112 -13.3225 34.6073 1.35949 3.47535 -172.39 52.8708 77.335 -101.957 2.30887 -5.00446 76.0801 -12.1411 -7.70996 18.5854 1.8123 8.47826 -1.32965 10.4899 -91.6591 5.83592 -3.35168 -3.16817 -5.83419 -3.4878 -3.01764 -28.3565 -2.24543 -4.02815 -8.34386 -2.24543 -4.02816 92.3927 -24.3292 -103.931 42.2607 15.0157 27.8335 -4.48656 -33.918 -4.61373 -41.3577 9.39696 -30.1105 -87.2932 -25.7615 77.2418 16.0655 6.00113 -49.0694 16.3782 25.7109 -46.3997 37.4939 -21.2887 -54.6862 13.8803 4.50921 -12.2774 1.9256 8.17832 15.2319 
-77.9245 81.3852 -71.0489 53.7172 -52.5726 60.2653 -167.732 13.3279 81.9567 -48.048 2.35759 -5.47302 113.829 31.2776 -12.9416 37.1258 2.66746 3.17404 175.935 62.5438 92.7054 -101.446 2.8908 -3.39972 80.9729 -15.7124 -7.62574 20.2286 1.5503 7.34933 -1.81257 10.06 -91.7665 6.67509 -4.3731 -3.31179 -4.9922 -4.51454 -3.11603 -27.5286 -3.1766 -4.47218 -7.516 -3.17659 -4.47218 94.7498 -19.872 -99.9875 47.427 15.595 41.4391 -14.9062 -44.8346 -18.7265 -40.4926 9.55881 -31.0772 -84.7719 -17.4192 80.1735 19.2732 1.77721 -47.7451 17.6076 24.2316 -47.2846 42.3279 -24.1834 -54.9425 13.9409 7.98973 -12.811 0.24597 11.4686 15.4208 
-71.7599 82.4305 -64.7812 53.2459 -52.2306 63.9952 -169.651 4.36826 85.3499 -36.94 6.4921 -4.26013 101.127 28.7099 -4.47983 44.1101 6.42441 0.815489 163.045 67.8692 109.478 -92.6071 -0.466607 -1.19363 84.9347 -17.0751 -4.32147 22.683 0.828873 6.4944 -2.61967 9.72383 -92.3651 7.29465 -6.25217 -4.36895 -4.36777 -6.4382 -4.08918 -26.9183 -4.65254 -6.04452 -6.90568 -4.65254 -6.0445 95.4083 -10.4339 -102.528 50.3859 13.6243 61.1524 -49.2905 -47.2921 -57.076 -43.9151 9.30629 -28.4109 -82.4821 -12.2297 84.5417 21.745 2.42956 -44.6694 17.7331 22.966 -46.2961 41.5589 -25.1186 -57.7239 14.9152 13.3682 -7.74251 -2.53664 15.0373 15.5341 
-64.3246 84.3024 -58.066 51.8758 -53.9926 65.8279 -172.951 -5.13542 85.7171 -22.45 8.86957 -2.02366 80.4506 17.8913 3.07208 54.8945 11.7546 -6.3991 156.239 69.0386 119.873 -78.9275 -7.90257 1.93368 84.1829 -16.4832 -4.03147 26.9622 -1.00814 7.07373 -2.59592 9.55121 -92.5191 7.62149 -6.27666 -4.65245 -4.04165 -6.47512 -4.37142 -26.5831 -4.59108 -6.32161 -6.57041 -4.59108 -6.32162 95.4033 -11.9271 -101.513 43.0826 13.9265 70.6583 -73.3489 -42.8975 -78.5394 -45.5328 12.1697 -34.0754 -82.2509 -6.56981 83.3959 24.4845 4.11844 -44.2801 18.6515 24.7362 -45.3355 44.5369 -27.0797 -57.7628 17.477 15.139 -8.36128 -4.9947 16.711 17.1719 
-55.9893 86.3824 -50.7081 48.8419 -56.7938 65.4086 -176.942 -7.29422 84.4442 -19.6468 11.3774 0.456955 58.1161 0.246923 4.98283 49.8947 10.8467 -15.3885 158.01 67.5133 122.606 -66.7604 -6.43745 4.11629 83.987 -14.8309 -0.621128 26.4884 -0.859942 7.20279 -2.42941 9.33422 -92.8886 8.03173 -6.11344 -5.36247 -3.63479 -6.34321 -5.08828 -26.1443 -4.22343 -6.94774 -6.13161 -4.22344 -6.94775 95.0162 -13.0245 -102.095 34.8411 14.8137 73.4401 -85.1707 -35.781 -87.6497 -51.9374 14.7416 -35.2938 -82.7497 -7.28905 82.1176 25.1184 7.81983 -43.7692 17.5867 23.5961 -45.6178 45.5929 -27.0062 -56.5185 20.0595 17.4719 -6.03128 -7.13184 18.0795 17.3628 
-48.3798 86.7572 -43.368 46.675 -60.1703 63.3803 -176.33 -7.10092 83.3914 -24.8335 16.4161 -0.919839 50.03 -6.90448 -0.260021 23.2308 -0.846284 -3.08926 164.767 63.4258 119.643 -60.1185 -7.28356 4.29012 83.5607 -14.8347 -0.695825 28.1142 -1.05863 5.43087 -2.19924 9.13281 -92.8828 8.44758 -5.66067 -5.3524 -3.22103 -5.89043 -5.09829 -25.7193 -3.79452 -6.80203 -5.70669 -3.7945 -6.80201 93.4552 -16.2813 -104.754 29.7437 15.5882 71.6524 -81.2617 -27.8006 -86.7682 -52.7779 14.8755 -35.0454 -83.4943 -12.5552 81.8803 23.0706 14.2713 -44.771 19.4734 25.5071 -46.4416 49.3893 -26.8377 -51.9932 21.2225 20.0142 -3.03308 -6.49919 19.7764 15.3695 
-41.4783 86.4816 -36.7564 48.7922 -62.0629 62.6063 -172.659 -4.80721 82.7218 -36.4442 22.9661 -4.68698 50.8602 -6.43983 -1.09167 35.1994 4.51649 -5.01238 171.587 57.5141 111.934 -58.8622 -8.12875 2.88363 76.3703 -9.86283 -0.200165 23.1156 1.57474 3.4891 -1.91752 9.05781 -92.5223 8.63507 -4.94304 -4.67217 -3.03407 -5.14367 -4.45023 -25.5412 -3.3131 -5.93897 -5.52853 -3.3131 -5.93897 92.4665 -22.7426 -104.419 26.533 16.4897 62.6713 -76.7421 -21.1449 -86.4027 -56.3007 13.6895 -30.7403 -85.234 -21.3327 80.2907 17.2081 18.68 -43.0029 23.9929 28.9925 -49.239 50.6889 -24.9625 -47.067 25 20.6673 0.180923 -6.78577 19.3992 11.6464 
-34.6751 86.1993 -30.3922 52.3603 -62.0148 63.1262 -166.934 4.44333 83.3902 -59.5176 14.9514 -5.23431 51.4842 -5.72236 -0.263001 33.9729 4.4209 -6.07454 173.74 52.2369 106.011 -64.5067 -6.86501 1.23016 82.7026 -13.5854 1.60353 26.316 -0.658289 6.69146 -1.56195 8.90716 -92.1542 8.97257 -4.07603 -3.98506 -2.69755 -4.24736 -3.80191 -25.2098 -2.69163 -5.02411 -5.19714 -2.69164 -5.02412 91.0437 -27.6368 -105.549 27.2894 15.2342 51.7891 -62.7179 -12.9475 -85.096 -60.7194 14.2459 -29.5126 -87.7833 -32.2878 78.1895 11.4371 23.0562 -37.3609 27.5283 35.8711 -49.8112 57.4834 -23.1782 -38.0045 25.9556 19.8814 3.52161 -5.0261 17.6782 7.99964 
-27.9835 86.1665 -24.0602 52.2813 -64.3155 65.4229 -160.159 18.5818 87.8189 -82.2312 3.11438 -2.08854 59.4479 -0.377591 3.30738 26.5979 1.22717 -5.08469 174.745 43.6976 105.233 -63.1356 -7.88118 1.09105 88.093 -17.686 2.28466 28.1566 -1.84265 8.5412 -0.578909 8.78302 -92.3456 9.2421 -2.2056 -4.4874 -2.43434 -2.40077 -4.38623 -24.9104 -0.756848 -4.94166 -4.89773 -0.756849 -4.94168 90.4885 -29.0375 -106.155 27.9949 13.3168 39.626 -57.1585 -5.40521 -89.492 -64.182 13.9548 -27.4729 -89.3467 -41.99 77.9365 -0.013808 25.5149 -24.042 30.1878 38.4492 -49.419 61.9094 -21.4258 -32.0715 23.453 18.2684 7.55806 -1.09463 15.1205 5.28371 
